<?xml version="1.0" standalone="no"?>
<!DOCTYPE svg PUBLIC "-//W3C//DTD SVG 20010904//EN"
 "http://www.w3.org/TR/2001/REC-SVG-20010904/DTD/svg10.dtd">
<svg version="1.0" xmlns="http://www.w3.org/2000/svg"
 width="568.000000pt" height="140.000000pt" viewBox="0 0 568.000000 140.000000"
 preserveAspectRatio="xMidYMid meet">

<g transform="translate(0.000000,140.000000) scale(0.100000,-0.100000)"
fill="#000000" stroke="none">
<path d="M3077 1284 c-61 -19 -122 -79 -137 -134 -7 -27 -10 -150 -8 -363 l3
-322 28 -47 c38 -64 96 -98 195 -111 105 -14 179 7 238 67 63 62 65 80 62 456
l-3 328 -30 43 c-45 65 -107 92 -214 96 -57 2 -102 -2 -134 -13z m166 -135
c12 -7 25 -17 29 -23 4 -6 8 -151 8 -322 0 -303 -1 -311 -21 -330 -32 -29
-105 -26 -130 5 -18 22 -19 43 -19 331 l0 309 26 20 c30 23 74 27 107 10z"/>
<path d="M100 1210 l0 -80 90 0 90 0 0 -486 0 -487 63 7 c34 4 77 9 95 13 l32
5 0 477 -1 476 91 3 90 3 0 74 0 75 -275 0 -275 0 0 -80z"/>
<path d="M720 749 l0 -542 61 7 c34 3 75 6 90 6 l29 0 0 224 0 224 31 6 c39 7
102 -8 120 -31 10 -12 16 -66 20 -200 3 -101 9 -187 15 -192 9 -9 168 -1 178
9 2 3 0 25 -4 50 -5 25 -10 108 -10 185 -2 171 -16 216 -82 259 l-28 18 32 22
c59 40 73 84 73 232 0 126 -1 132 -28 173 -49 74 -89 85 -309 89 l-188 4 0
-543z m325 366 c23 -22 25 -31 25 -124 0 -90 -2 -102 -23 -127 -20 -23 -34
-28 -85 -32 l-62 -4 0 156 0 156 60 0 c51 0 65 -4 85 -25z"/>
<path d="M1362 778 c3 -482 4 -513 21 -512 9 1 118 7 242 14 l225 13 0 75 0
74 -152 -7 -153 -7 2 148 2 149 58 2 c32 2 86 5 121 9 l62 6 0 70 0 70 -121
-3 -120 -3 0 134 0 135 150 3 151 3 0 69 0 70 -245 0 -245 0 2 -512z"/>
<path d="M1950 795 l0 -495 90 0 90 0 0 495 0 495 -90 0 -90 0 0 -495z"/>
<path d="M2260 800 l0 -490 80 0 80 0 2 348 3 347 98 -325 c54 -179 101 -333
103 -342 5 -16 18 -18 100 -18 l94 0 0 485 0 485 -80 0 -80 0 -2 -281 -3 -281
-86 278 -86 279 -111 3 -112 3 0 -491z"/>
<path d="M3572 798 l3 -493 88 -3 87 -3 0 206 0 205 115 0 115 0 0 70 0 70
-69 0 c-37 0 -89 3 -115 6 l-46 7 0 143 0 144 145 0 145 0 0 70 0 70 -235 0
-235 0 2 -492z"/>
<path d="M4120 785 l0 -504 33 -5 c17 -3 106 -10 197 -16 91 -6 182 -13 203
-16 l37 -6 0 80 0 80 -97 6 c-54 4 -118 9 -143 12 l-45 5 3 435 2 434 -95 0
-95 0 0 -505z"/>
<path d="M4670 760 l0 -530 38 0 c20 0 61 -3 90 -6 l52 -7 0 537 0 536 -90 0
-90 0 0 -530z"/>
<path d="M4950 1283 c0 -5 40 -123 89 -263 l89 -254 -45 -125 c-25 -69 -69
-194 -98 -278 l-54 -152 57 -6 c31 -3 69 -8 83 -11 27 -5 27 -4 99 211 40 119
73 215 75 213 2 -2 33 -104 70 -228 38 -124 69 -226 71 -228 7 -10 184 -27
184 -18 0 13 -57 195 -132 424 l-60 183 91 265 c50 146 91 267 91 270 0 2 -37
4 -83 4 l-83 0 -64 -195 c-35 -107 -67 -191 -71 -187 -4 4 -34 90 -66 192
l-59 185 -92 3 c-51 1 -92 -1 -92 -5z"/>
</g>
</svg>
